:SAMPLES-PER-SECOND 30
:FRAME-RANGE 1-668
:FULLY-SPECIFIED
:DEGREES
481
root  -30.331 39.0273 13.7637 -179.78 59.1215 178.562
RightUpLeg  -14.3696 -3.27535 -4.94899
RightLeg  44.259 -2.38723 -2.7875
RightFoot  -13.6522 0.09989 9.53679
RightToes  5.38607e-012 1.2921e-014 -6.02303e-014
Spine  -7.38045 -1.67711 -3.54461
Spine1  9.68784 -0.822173 -4.60919
HEad  11.5454 20.38 -1.38789
LeftShoulder1  0.993301 -0.146302 -22.7246
LeftArm  22.7597 13.9866 -39.8248
LeftForeArm  41.6045 -31.6524 -4.63556
LeftHand  -0.027862 6.33131 0.714421
RightShoulder  1.5178 2.93101 17.7993
RightArm  31.1734 18.3609 41.5323
RightForeArm  118.098 81.4436 81.0501
RightHand  0.00326242 -7.22909 -2.50447
LeftUpLeg  -12.3281 -10.0146 -1.65859
LeftLeg  22.0386 -3.14032 -0.556606
LeftFoot  -12.6935 0.0747626 -0.119903
LeftToes  -6.11857e-011 5.00151e-011 -2.22593e-011
482
root  -29.776 39.0305 13.753 -178.979 57.81 179.351
RightUpLeg  -15.2982 -1.33197 -4.98446
RightLeg  41.2468 -2.67337 -2.78733
RightFoot  -13.9227 0.117295 9.38963
RightToes  5.38607e-012 1.2921e-014 -6.02303e-014
Spine  -7.37882 -1.68645 -3.75245
Spine1  9.54244 -0.627333 -5.12785
HEad  10.043 19.3005 -2.02812
LeftShoulder1  0.994606 -0.130732 -22.9027
LeftArm  25.3633 14.9627 -39.4506
LeftForeArm  36.8513 -28.4957 -4.16892
LeftHand  -0.0246679 5.98545 1.26553
RightShoulder  1.48817 2.97727 17.0908
RightArm  30.5197 19.9636 40.8066
RightForeArm  125.439 81.6431 85.1469
RightHand  0.0281238 -7.20427 -4.00085
LeftUpLeg  -11.802 -10.4835 -0.883411
LeftLeg  22.1998 -4.00605 -0.889056
LeftFoot  -13.6194 0.0774775 -0.213207
LeftToes  -6.11857e-011 5.00151e-011 -2.22593e-011
483
root  -29.2058 39.0157 13.7931 -178.194 56.1568 -179.723
RightUpLeg  -16.206 1.54903 -5.219
RightLeg  38.2273 -2.48337 -2.35812
RightFoot  -14.314 0.147261 9.40761
RightToes  5.38607e-012 1.2921e-014 -6.02303e-014
Spine  -7.16791 -1.75853 -3.99779
Spine1  9.60952 -0.57317 -5.34471
HEad  7.83816 18.0296 -3.11693
LeftShoulder1  1.06209 -0.330601 -23.1838
LeftArm  28.5006 15.5776 -38.7941
LeftForeArm  31.5285 -25.7346 -3.84736
LeftHand  -0.0240014 5.71811 1.81532
RightShoulder  1.41833 2.88845 16.2251
RightArm  29.0433 21.9046 40.5139
RightForeArm  132.134 81.7961 88.4529
RightHand  0.0317935 -7.07453 -4.47827
LeftUpLeg  -11.4143 -10.877 0.240542
LeftLeg  22.7092 -5.25403 -1.63969
LeftFoot  -14.6562 0.0768982 -0.380891
LeftToes  -6.11857e-011 5.00151e-011 -2.22593e-011
484
root  -28.6172 38.9828 13.8737 -177.272 54.1676 -178.575
RightUpLeg  -17.2468 5.11132 -5.65533
RightLeg  35.4624 -1.77482 -1.60641
RightFoot  -14.5057 0.15683 9.23053
RightToes  5.38607e-012 1.2921e-014 -6.02303e-014
Spine  -6.63781 -1.8722 -4.03719
Spine1  9.29046 -0.630654 -5.46101
HEad  5.76788 16.7203 -4.34903
LeftShoulder1  1.15868 -0.631938 -23.4155
LeftArm  31.7965 15.7569 -38.2459
LeftForeArm  26.6585 -22.6914 -3.85697
LeftHand  -0.0240849 5.57963 2.31373
RightShoulder  1.38785 2.95316 15.4324
RightArm  26.5741 24.4934 40.3482
RightForeArm  127.136 81.7887 80.7664
RightHand  0.0222103 -6.711 -4.69566
LeftUpLeg  -11.2617 -12.133 1.66241
LeftLeg  23.4909 -5.9288 -2.2627
LeftFoot  -15.6121 0.0777927 -0.425135
LeftToes  -6.11857e-011 5.00151e-011 -2.22593e-011
485
root  -27.9874 38.9306 13.9706 -176.565 51.9246 -177.78
RightUpLeg  -18.5329 8.36984 -6.74945
RightLeg  33.0855 -0.0150973 -0.248829
RightFoot  -14.6075 0.158886 9.03902
RightToes  5.38607e-012 1.2921e-014 -6.02303e-014
Spine  -6.34867 -1.98733 -4.12579
Spine1  9.14102 -0.670167 -5.55982
HEad  4.19074 15.3688 -5.2996
LeftShoulder1  1.22026 -0.850688 -23.346
LeftArm  30.7128 15.4401 -37.7306
LeftForeArm  26.4528 -19.4362 -6.04694
LeftHand  -0.0243049 5.55577 2.36656
RightShoulder  1.35407 3.01752 14.5974
RightArm  23.0928 27.4077 39.9615
RightForeArm  111.896 81.1352 66.5424
RightHand  0.00287964 -6.16733 -4.70943
LeftUpLeg  -11.3052 -13.5787 3.01364
LeftLeg  24.2925 -6.61983 -2.87195
LeftFoot  -16.3907 0.0830992 -0.34506
LeftToes  -6.11857e-011 5.00151e-011 -2.22593e-011
486
root  -27.3189 38.8649 14.0923 -175.921 49.3033 -177.113
RightUpLeg  -20.0104 11.475 -8.29253
RightLeg  31.3086 2.62721 1.49311
RightFoot  -14.2893 0.135299 9.01678
RightToes  5.38607e-012 1.2921e-014 -6.02303e-014
Spine  -5.80936 -2.0199 -4.07665
Spine1  8.5885 -0.660055 -5.5963
HEad  3.08378 13.629 -5.82751
LeftShoulder1  1.32935 -1.19855 -23.5112
LeftArm  26.1946 14.6962 -36.7211
LeftForeArm  29.5723 -15.6655 -9.03482
LeftHand  -0.0270889 5.40894 2.48242
RightShoulder  1.31663 3.09403 13.6706
RightArm  19.1605 29.8081 38.9009
RightForeArm  99.6702 80.0779 55.1705
RightHand  -0.0147248 -5.72304 -4.27622
LeftUpLeg  -11.5477 -14.4177 4.52314
LeftLeg  25.1746 -8.29366 -3.87873
LeftFoot  -17.2951 0.0715114 -0.619554
LeftToes  -6.11857e-011 5.00151e-011 -2.22593e-011
487
root  -26.6152 38.7649 14.237 -175.59 46.1689 -176.7
RightUpLeg  -21.2406 14.3502 -10.2382
RightLeg  29.9166 5.46216 3.1669
RightFoot  -13.9496 0.131568 9.92514
RightToes  5.38607e-012 1.2921e-014 -6.02303e-014
Spine  -5.13989 -2.11436 -3.81438
Spine1  8.04387 -0.647322 -6.02304
HEad  2.00897 11.7857 -6.16294
LeftShoulder1  1.40189 -1.43877 -23.549
LeftArm  21.5413 13.6211 -35.5755
LeftForeArm  32.116 -11.9566 -11.4118
LeftHand  -0.0269828 5.35352 2.91417
RightShoulder  1.28265 3.17676 12.8012
RightArm  15.6882 31.7175 37.0831
RightForeArm  89.8638 78.7418 46.4218
RightHand  -0.00273147 -5.96953 -4.95439
LeftUpLeg  -11.965 -15.9425 6.00452
LeftLeg  26.2767 -9.71885 -4.83209
LeftFoot  -18.223 0.0567121 -0.874503
LeftToes  -6.11857e-011 5.00151e-011 -2.22593e-011
488
root  -25.8695 38.6245 14.4086 -175.395 42.3665 -176.386
RightUpLeg  -22.0514 16.2892 -12.3093
RightLeg  28.907 9.04193 5.15537
RightFoot  -13.3621 0.109824 11.3526
RightToes  5.38607e-012 1.2921e-014 -6.02303e-014
Spine  -4.45584 -2.18011 -3.86372
Spine1  7.67053 -0.767264 -5.74764
HEad  1.21455 9.54252 -6.42173
LeftShoulder1  1.52538 -1.80797 -23.848
LeftArm  16.2295 12.5312 -34.436
LeftForeArm  34.6578 -8.50171 -12.8322
LeftHand  -0.0217556 5.55203 3.41168
RightShoulder  1.24927 3.20711 12.1299
RightArm  12.2848 33.1083 34.1104
RightForeArm  81.5996 77.4458 40.9764
RightHand  -0.00848676 -5.65779 -6.79553
LeftUpLeg  -12.8596 -17.2753 7.70451
LeftLeg  27.8938 -11.8096 -6.35474
LeftFoot  -18.9833 0.0680461 -0.686054
LeftToes  -6.11857e-011 5.00151e-011 -2.22593e-011
489
root  -25.0658 38.4895 14.6242 -175.314 38.2526 -176.089
RightUpLeg  -22.2764 17.9534 -14.1099
RightLeg  28.105 12.5131 6.94816
RightFoot  -12.3577 0.0269294 12.4869
RightToes  5.38607e-012 1.2921e-014 -6.02303e-014
Spine  -3.64855 -2.20471 -3.84774
Spine1  7.18597 -0.893885 -5.35787
HEad  0.939239 7.33612 -6.2239
LeftShoulder1  1.53645 -1.87175 -23.6865
LeftArm  11.3252 11.8668 -33.7086
LeftForeArm  34.9056 -5.73164 -13.4295
LeftHand  -0.0248942 5.39754 3.97153
RightShoulder  1.20974 3.16181 11.5971
RightArm  8.094 34.1112 31.2666
RightForeArm  75.3408 75.8022 35.3382
RightHand  -0.0182038 -5.45825 -7.49547
LeftUpLeg  -13.7127 -18.5437 9.69259
LeftLeg  29.161 -14.2128 -8.09339
LeftFoot  -19.7199 0.056206 -0.847603
LeftToes  -6.11857e-011 5.00151e-011 -2.22593e-011
490
root  -24.1945 38.3345 14.8469 -175.322 34.098 -176.025
RightUpLeg  -22.0127 19.7311 -15.7195
RightLeg  27.5001 15.7573 8.53108
RightFoot  -12.5024 0.0535951 13.6455
RightToes  5.38607e-012 1.2921e-014 -6.02303e-014
Spine  -3.27522 -2.23769 -3.66807
Spine1  6.96433 -0.936115 -5.34216
HEad  1.533 5.34599 -5.84358
LeftShoulder1  1.47968 -1.68549 -23.6538
LeftArm  7.9261 11.8483 -32.6408
LeftForeArm  34.1479 -4.41314 -13.3723
LeftHand  -0.020339 5.47453 5.23623
RightShoulder  1.16729 3.06191 11.1771
RightArm  3.89548 34.9747 29.1751
RightForeArm  67.9518 73.058 28.7809
RightHand  -0.0575503 -4.80787 -7.53215
LeftUpLeg  -14.7656 -19.9357 11.736
LeftLeg  30.3221 -16.6448 -9.92683
LeftFoot  -20.3538 0.02719 -1.20421
LeftToes  -6.11857e-011 5.00151e-011 -2.22593e-011
491
root  -23.2481 38.1631 15.1146 -175.481 29.735 -176.216
RightUpLeg  -21.1016 21.4188 -16.8439
RightLeg  26.907 18.0191 9.49602
RightFoot  -13.6317 0.192804 14.2287
RightToes  5.38607e-012 1.2921e-014 -6.02303e-014
Spine  -3.14627 -2.2532 -3.69892
Spine1  7.07924 -0.952673 -5.32263
HEad  2.71121 3.36247 -5.31962
LeftShoulder1  1.39307 -1.38468 -23.7098
LeftArm  5.43361 11.98 -31.3997
LeftForeArm  32.7792 -3.79995 -13.1292
LeftHand  -0.029903 5.23958 5.48644
RightShoulder  1.12003 2.90697 10.8319
RightArm  0.375298 35.7018 27.4247
RightForeArm  60.1262 69.9895 24.0873
RightHand  -0.109175 -3.93666 -7.43926
LeftUpLeg  -16.0011 -21.1996 13.8396
LeftLeg  31.3085 -19.3032 -11.9176
LeftFoot  -20.8152 0.00499086 -1.44665
LeftToes  -6.11857e-011 5.00151e-011 -2.22593e-011
